<svg xmlns="http://www.w3.org/2000/svg" viewBox="0 0 48 48" fill="none">
  <!-- Simple theatre masks icon -->
  <circle cx="24" cy="24" r="23" stroke="#c9a227" stroke-width="2" fill="none"/>

  <!-- Comedy mask (left) -->
  <path d="M12 18 C12 14 16 12 20 12 C24 12 26 14 26 18 C26 24 22 28 18 28 C14 28 12 24 12 18Z" fill="none" stroke="#fff" stroke-width="1.5"/>
  <circle cx="15" cy="17" r="1.5" fill="#fff"/>
  <circle cx="21" cy="17" r="1.5" fill="#fff"/>
  <path d="M14 22 Q18 26 22 22" stroke="#fff" stroke-width="1.5" fill="none" stroke-linecap="round"/>

  <!-- Tragedy mask (right, slightly behind) -->
  <path d="M22 20 C22 16 26 14 30 14 C34 14 36 16 36 20 C36 26 32 30 28 30 C24 30 22 26 22 20Z" fill="none" stroke="#fff" stroke-width="1.5"/>
  <circle cx="26" cy="19" r="1.5" fill="#fff"/>
  <circle cx="32" cy="19" r="1.5" fill="#fff"/>
  <path d="M25 25 Q29 23 33 25" stroke="#fff" stroke-width="1.5" fill="none" stroke-linecap="round"/>

  <!-- Spotlight beam hint -->
  <path d="M8 8 L16 14" stroke="#c9a227" stroke-width="1" opacity="0.6"/>
  <path d="M6 12 L14 16" stroke="#c9a227" stroke-width="1" opacity="0.4"/>
</svg>
